<svg id="Layer_1" data-name="Layer 1" xmlns="http://www.w3.org/2000/svg" viewBox="0 0 119.15 63.09"><defs><style>.cls-1{fill:#fff;stroke:#231f20;stroke-miterlimit:10;}</style></defs><path class="cls-1" d="M313.69,247.46a7.42,7.42,0,0,0-7.41,7.42V295q0,4.52-5,7.75c-3.07,2-7.87,3-14.41,3.21a1.57,1.57,0,0,1-1.61-1.56v-57h-.73a7.24,7.24,0,0,0-7.24,7.24v45.44a1.38,1.38,0,0,1-2.21,1.09l-70.22-53.34a2.07,2.07,0,0,0-1.27-.43h0a7.26,7.26,0,0,0-7.26,7.26v54.83H197a7.26,7.26,0,0,0,7.26-7.25V256.51a1.28,1.28,0,0,1,2.05-1l70.94,54.06h8q13.37,0,21.24-4t8-10.5V247.46Z" transform="translate(-195.78 -246.96)"/></svg>